<svg xmlns="http://www.w3.org/2000/svg"><symbol id="icon-archive" viewBox="0 0 18 18">
    <path fill="#7D7D7D" fill-rule="evenodd" d="M17.5 2.2L16.1.5C15.9.2 15.5 0 15 0H3c-.5 0-.9.2-1.2.5L.5 2.2C.2 2.6 0 3 0 3.5V16c0 1.1.9 2 2 2h14c1.1 0 2-.9 2-2V3.5c0-.5-.2-.9-.5-1.3zM9 14.5L3.5 9H7V7h4v2h3.5L9 14.5zM2.1 2l.8-1h12l.9 1H2.1z"/>
</symbol><symbol id="icon-arrow-back" viewBox="0 0 16 16">
    <path fill="currentColor" fill-opacity=".87" fill-rule="evenodd" d="M16 7H3.8l5.6-5.6L8 0 0 8l8 8 1.4-1.4L3.8 9H16z"/>
</symbol><symbol id="icon-arrow-dropdown" viewBox="0 0 10 5">
    <path fill="#FFF" fill-opacity=".87" fill-rule="evenodd" d="M0 0l5 5 5-5z"/>
</symbol><symbol id="icon-call" viewBox="0 0 18 18">
    <path fill="#2196F3" fill-rule="evenodd" d="M3.6 7.8c1.4 2.8 3.8 5.1 6.6 6.6l2.2-2.2c.3-.3.7-.4 1-.2 1.1.4 2.3.6 3.6.6.6 0 1 .4 1 1V17c0 .6-.4 1-1 1C7.6 18 0 10.4 0 1c0-.6.4-1 1-1h3.5c.6 0 1 .4 1 1 0 1.2.2 2.4.6 3.6.1.3 0 .7-.2 1L3.6 7.8z"/>
</symbol><symbol id="icon-create" viewBox="0 0 18 18">
    <path fill="currentColor" fill-opacity=".87" fill-rule="evenodd" d="M0 14.2V18h3.8l11-11.1L11 3.1 0 14.2zM17.7 4c.4-.4.4-1 0-1.4L15.4.3c-.4-.4-1-.4-1.4 0l-1.8 1.8L16 5.9 17.7 4z"/>
</symbol><symbol id="icon-delete" viewBox="0 0 14 18"><path fill="#7D7D7D" fill-rule="evenodd" d="M1 16c0 1.1.9 2 2 2h8c1.1 0 2-.9 2-2V4H1v12zM14 1h-3.5l-1-1h-5l-1 1H0v2h14V1z"/></symbol><symbol id="icon-done" viewBox="0 0 18 14">
    <path fill="#7D7D7D" fill-rule="evenodd" d="M6 11.2L1.8 7 .4 8.4 6 14 18 2 16.6.6z"/>
</symbol><symbol id="icon-email" viewBox="0 0 20 16">
    <path fill="#2196F3" fill-rule="evenodd" d="M18 0H2C.9 0 0 .9 0 2v12c0 1.1.9 2 2 2h16c1.1 0 2-.9 2-2V2c0-1.1-.9-2-2-2zm0 4l-8 5-8-5V2l8 5 8-5v2z"/>
</symbol><symbol id="icon-flag" viewBox="0 0 14 16">
    <g fill="#7D7D7D" fill-rule="evenodd">
        <path d="M0 0h2v16H0zM3 0h11v11H3z"/>
    </g>
</symbol><symbol id="icon-forum" viewBox="0 0 20 20">
    <path fill="#7D7D7D" fill-rule="evenodd" d="M19 4h-2v9H4v2c0 .6.4 1 1 1h11l4 4V5c0-.6-.4-1-1-1zm-4 6V1c0-.6-.4-1-1-1H1C.4 0 0 .4 0 1v14l4-4h10c.6 0 1-.4 1-1z"/>
</symbol><symbol id="icon-hangout" viewBox="0 0 17 21">
    <path fill="#757575" fill-rule="evenodd" d="M8.5 0C3.8 0 0 3.8 0 8.5S3.8 17 8.5 17H9v3.5c4.9-2.3 8-7.5 8-12C17 3.8 13.2 0 8.5 0zM8 9l-1 2H5.5l1-2H5V6h3v3zm4 0l-1 2H9.5l1-2H9V6h3v3z"/>
</symbol><symbol id="icon-menu" viewBox="0 0 18 12">
    <path fill="currentColor" fill-rule="evenodd" d="M0 5v2h18V5H0zm0 5v2h18v-2H0zM0 0v2h18V0H0z"/>
</symbol><symbol id="icon-more" viewBox="0 0 4 16">
    <path fill="currentColor" fill-rule="evenodd" d="M2 16a2 2 0 1 0 0-4 2 2 0 0 0 0 4zm0-6a2 2 0 1 0 0-4 2 2 0 0 0 0 4zm0-6a2 2 0 1 0 0-4 2 2 0 0 0 0 4z"/>
</symbol><symbol id="icon-place" viewBox="0 0 14 20">
    <path fill="#2196F3" fill-rule="evenodd" d="M7 0C3.1 0 0 3.1 0 7c0 5.2 7 13 7 13s7-7.8 7-13c0-3.9-3.1-7-7-7zm0 9.5C5.6 9.5 4.5 8.4 4.5 7S5.6 4.5 7 4.5 9.5 5.6 9.5 7 8.4 9.5 7 9.5z"/>
</symbol><symbol id="icon-refresh" viewBox="0 0 17 16">
    <path fill="currentColor" fill-rule="evenodd" d="M14.337 7.108h1.73V.333L13.69 2.805A7.767 7.767 0 0 0 7.735 0C3.5 0 0 3.589 0 8s3.417 8 7.652 8c2.95 0 5.66-1.794 6.927-4.57l-1.741-.859c-.95 2.084-2.999 3.43-5.211 3.43-3.176 0-5.761-2.692-5.761-6s2.583-6 5.759-6c1.841 0 3.478.62 4.534 2.024L9.225 7.108h5.112z"/> 
</symbol><symbol id="icon-send" viewBox="0 0 21 18">
    <path fill="#7D7D7D" fill-rule="evenodd" d="M0 18l21-9L0 0v7l15 2-15 2z"/>
</symbol><symbol id="icon-star" viewBox="0 0 20 19">
    <path fill="#7D7D7D" fill-rule="evenodd" d="M10 15.273L16.18 19l-1.635-7.029L20 7.244l-7.191-.617L10 0 7.191 6.627 0 7.244l5.455 4.727L3.82 19z"/>
</symbol><symbol id="icon-time" viewBox="0 0 20 20">
    <g fill="#7D7D7D" fill-rule="evenodd">
        <path d="M10 0C4.5 0 0 4.5 0 10s4.5 10 10 10 10-4.5 10-10S15.5 0 10 0zm0 18c-4.4 0-8-3.6-8-8s3.6-8 8-8 8 3.6 8 8-3.6 8-8 8z"/>
        <path d="M10.5 5H9v6l5.2 3.2.8-1.3-4.5-2.7z"/>
    </g>
</symbol></svg>